<svg width="36" height="36" viewBox="0 0 36 36" fill="none" xmlns="http://www.w3.org/2000/svg">
<rect width="36" height="36" rx="18" fill="#1E4D8E"/>
<path d="M26.7649 8.368L26.4489 9.316C26.0889 10.394 25.4789 11.438 24.9289 12.222C25.9959 13.445 26.8819 15.096 27.2719 16.813C27.7399 18.88 27.5149 21.213 25.7779 22.95L23.6569 25.071L22.9309 24.345C21.0329 26.049 18.8359 27.309 16.6669 27.833C14.1989 28.43 11.6689 28.083 9.7929 26.207C7.9169 24.331 7.5709 21.801 8.1669 19.333C8.6909 17.164 9.9509 14.967 11.6549 13.07L10.9289 12.343L13.0499 10.223C14.7769 8.496 17.1099 8.272 19.1599 8.723C20.7599 9.075 22.3029 9.854 23.4739 10.805C23.8869 10.182 24.3039 9.425 24.5509 8.684L24.8679 7.735L26.7649 8.368ZM21.5149 22.928L20.5349 21.95V19.707H18.2929L13.0719 14.486C11.5819 16.167 10.5359 18.046 10.1119 19.803C9.6279 21.803 9.9589 23.545 11.2069 24.793C12.4549 26.041 14.1969 26.373 16.1969 25.889C17.9539 25.464 19.8329 24.419 21.5139 22.929" fill="white"/>
</svg>
