<svg width="36" height="36" viewBox="0 0 36 36" fill="none" xmlns="http://www.w3.org/2000/svg">
<rect width="36" height="36" rx="12" fill="#F1C75B"/>
<path d="M28.775 18.5893H24.1425C24.1425 19.7777 23.5794 20.9174 22.5769 21.7577C21.5745 22.598 20.2149 23.0701 18.7973 23.0701C17.3797 23.0701 16.0201 22.598 15.0177 21.7577C14.0152 20.9174 13.4521 19.7777 13.4521 18.5893H8.77502" stroke="#1E4D8E" stroke-width="1.5" stroke-linecap="round" stroke-linejoin="round"/>
<path d="M15.4565 15.7888C15.4565 16.5315 15.8085 17.2439 16.435 17.7691C17.0615 18.2943 17.9113 18.5893 18.7973 18.5893C19.6833 18.5893 20.5331 18.2943 21.1596 17.7691C21.7861 17.2439 22.1381 16.5315 22.1381 15.7888C22.1381 13.806 19.5216 13.1391 20.3091 9.90619C20.3374 9.79285 20.3231 9.67495 20.2682 9.5687C20.2133 9.46246 20.1204 9.37309 20.0024 9.3129C19.8844 9.25272 19.7471 9.22467 19.6093 9.23261C19.4715 9.24056 19.34 9.28412 19.2329 9.35729C18.1213 10.1624 17.2142 11.1466 16.5654 12.2515C15.9167 13.3563 15.5396 14.5593 15.4565 15.7888Z" stroke="#1E4D8E" stroke-width="1.5" stroke-linecap="round" stroke-linejoin="round"/>
<path d="M9.44315 29.2313C9.35454 29.2313 9.26957 29.2018 9.20692 29.1493C9.14427 29.0967 9.10907 29.0255 9.10907 28.9512C9.10907 28.877 9.14427 28.8057 9.20692 28.7532C9.26957 28.7007 9.35454 28.6712 9.44315 28.6712M9.44315 29.2313C9.53175 29.2313 9.61672 29.2018 9.67937 29.1493C9.74202 29.0967 9.77722 29.0255 9.77722 28.9512C9.77722 28.877 9.74202 28.8057 9.67937 28.7532C9.61672 28.7007 9.53175 28.6712 9.44315 28.6712M15.4565 29.2313C15.3679 29.2313 15.2829 29.2018 15.2203 29.1493C15.1576 29.0967 15.1224 29.0255 15.1224 28.9512C15.1224 28.877 15.1576 28.8057 15.2203 28.7532C15.2829 28.7007 15.3679 28.6712 15.4565 28.6712M15.4565 29.2313C15.5451 29.2313 15.6301 29.2018 15.6927 29.1493C15.7554 29.0967 15.7906 29.0255 15.7906 28.9512C15.7906 28.877 15.7554 28.8057 15.6927 28.7532C15.6301 28.7007 15.5451 28.6712 15.4565 28.6712M22.138 29.2313C22.0494 29.2313 21.9644 29.2018 21.9018 29.1493C21.8391 29.0967 21.8039 29.0255 21.8039 28.9512C21.8039 28.877 21.8391 28.8057 21.9018 28.7532C21.9644 28.7007 22.0494 28.6712 22.138 28.6712M22.138 29.2313C22.2266 29.2313 22.3116 29.2018 22.3742 29.1493C22.4369 29.0967 22.4721 29.0255 22.4721 28.9512C22.4721 28.877 22.4369 28.8057 22.3742 28.7532C22.3116 28.7007 22.2266 28.6712 22.138 28.6712M28.1514 29.2313C28.0628 29.2313 27.9778 29.2018 27.9152 29.1493C27.8525 29.0967 27.8173 29.0255 27.8173 28.9512C27.8173 28.877 27.8525 28.8057 27.9152 28.7532C27.9778 28.7007 28.0628 28.6712 28.1514 28.6712M28.1514 29.2313C28.24 29.2313 28.325 29.2018 28.3876 29.1493C28.4503 29.0967 28.4855 29.0255 28.4855 28.9512C28.4855 28.877 28.4503 28.8057 28.3876 28.7532C28.325 28.7007 28.24 28.6712 28.1514 28.6712M28.1514 23.6302C28.0628 23.6302 27.9778 23.6007 27.9152 23.5482C27.8525 23.4957 27.8173 23.4245 27.8173 23.3502C27.8173 23.2759 27.8525 23.2047 27.9152 23.1522C27.9778 23.0996 28.0628 23.0701 28.1514 23.0701M28.1514 23.6302C28.24 23.6302 28.325 23.6007 28.3876 23.5482C28.4503 23.4957 28.4855 23.4245 28.4855 23.3502C28.4855 23.2759 28.4503 23.2047 28.3876 23.1522C28.325 23.0996 28.24 23.0701 28.1514 23.0701M25.4788 26.4308C25.3902 26.4308 25.3052 26.4013 25.2426 26.3487C25.1799 26.2962 25.1447 26.225 25.1447 26.1507C25.1447 26.0764 25.1799 26.0052 25.2426 25.9527C25.3052 25.9002 25.3902 25.8707 25.4788 25.8707M25.4788 26.4308C25.5674 26.4308 25.6524 26.4013 25.715 26.3487C25.7777 26.2962 25.8129 26.225 25.8129 26.1507C25.8129 26.0764 25.7777 26.0052 25.715 25.9527C25.6524 25.9002 25.5674 25.8707 25.4788 25.8707M12.1158 26.4308C12.0271 26.4308 11.9422 26.4013 11.8795 26.3487C11.8169 26.2962 11.7817 26.225 11.7817 26.1507C11.7817 26.0764 11.8169 26.0052 11.8795 25.9527C11.9422 25.9002 12.0271 25.8707 12.1158 25.8707M12.1158 26.4308C12.2044 26.4308 12.2893 26.4013 12.352 26.3487C12.4146 26.2962 12.4498 26.225 12.4498 26.1507C12.4498 26.0764 12.4146 26.0052 12.352 25.9527C12.2893 25.9002 12.2044 25.8707 12.1158 25.8707M9.44315 23.6302C9.35454 23.6302 9.26957 23.6007 9.20692 23.5482C9.14427 23.4957 9.10907 23.4245 9.10907 23.3502C9.10907 23.2759 9.14427 23.2047 9.20692 23.1522C9.26957 23.0996 9.35454 23.0701 9.44315 23.0701M9.44315 23.6302C9.53175 23.6302 9.61672 23.6007 9.67937 23.5482C9.74202 23.4957 9.77722 23.4245 9.77722 23.3502C9.77722 23.2759 9.74202 23.2047 9.67937 23.1522C9.61672 23.0996 9.53175 23.0701 9.44315 23.0701" stroke="#1E4D8E" stroke-width="1.5"/>
</svg>
