<svg width="36" height="36" viewBox="0 0 36 36" fill="none" xmlns="http://www.w3.org/2000/svg">
<rect width="36" height="36" rx="12" fill="#F1C75B"/>
<path d="M17.1142 11.7225C17.0958 11.3867 17.0667 10.8533 16.8467 10.4258C16.7158 10.1616 16.503 9.94671 16.24 9.81335C15.9508 9.66918 15.6242 9.63835 15.2858 9.68501C14.9783 9.72751 14.7025 9.85168 14.4833 10.0642C14.2692 10.2725 14.1433 10.53 14.075 10.7875C13.9442 11.2858 14.0017 11.8708 14.1325 12.4217C14.3967 13.5375 15.0375 14.82 15.76 15.695C15.8783 15.8383 15.965 16.0258 16.0208 16.2217C16.0767 16.4183 16.0925 16.59 16.0925 16.6717V16.7283L17.3425 17.0033V16.6708C17.3425 16.31 17.2292 15.5108 16.7242 14.8992C16.1225 14.1708 15.5683 13.0617 15.3492 12.1342C15.2367 11.6625 15.23 11.3133 15.2842 11.1067C15.3092 11.0117 15.34 10.975 15.3525 10.9625C15.3608 10.9542 15.3833 10.9333 15.4567 10.9233C15.6175 10.9017 15.6758 10.9283 15.6833 10.9317C15.6883 10.935 15.7075 10.9442 15.735 10.9983C15.8133 11.15 15.8458 11.4108 15.8667 11.7983L15.87 11.8708C15.8783 12.0208 15.8867 12.1917 15.9058 12.34C15.925 12.4867 15.9667 12.7567 16.1325 12.9733C16.2442 13.12 16.4027 13.2241 16.5817 13.2683C16.7708 13.3142 16.945 13.285 17.0775 13.24C17.3217 13.1583 17.5558 12.9817 17.7758 12.7867C17.7859 12.7773 17.7971 12.7692 17.8092 12.7625L17.8308 12.7558C17.8882 12.7473 17.9463 12.7448 18.0042 12.7483L18.0125 12.7492C18.0307 12.7608 18.0477 12.7742 18.0633 12.7892C18.2833 12.985 18.5183 13.1608 18.7625 13.2425C18.8942 13.2867 19.0683 13.3175 19.2575 13.2708C19.4365 13.2266 19.595 13.1225 19.7067 12.9758C19.8733 12.7592 19.915 12.4892 19.9333 12.3425C19.9517 12.1942 19.9608 12.0242 19.9692 11.8742L19.9725 11.8017C19.9942 11.4133 20.0258 11.1533 20.1042 11.0008C20.1317 10.9467 20.15 10.9383 20.155 10.9358C20.1633 10.9317 20.2217 10.9042 20.3825 10.9267C20.4525 10.9358 20.47 10.955 20.4733 10.9575C20.4808 10.965 20.5083 10.9975 20.53 11.0908C20.5767 11.295 20.5583 11.6442 20.4308 12.1183C20.1808 13.05 19.5942 14.1658 18.9875 14.9017C18.4817 15.5125 18.3683 16.3117 18.3683 16.6733V16.985L19.6183 16.7092V16.6733C19.6183 16.5917 19.6342 16.4208 19.69 16.2233C19.7467 16.0275 19.8325 15.84 19.9508 15.6975C20.6675 14.8292 21.34 13.5533 21.6383 12.4425C21.785 11.8958 21.8633 11.3108 21.7483 10.81C21.6899 10.5327 21.5541 10.2775 21.3567 10.0742C21.1388 9.86047 20.8563 9.72482 20.5533 9.68835C20.215 9.64168 19.8883 9.67168 19.5992 9.81585C19.336 9.94943 19.1232 10.1646 18.9925 10.4292C18.7733 10.8542 18.7433 11.3867 18.7258 11.7225C18.6068 11.6397 18.4743 11.5782 18.3342 11.5408C18.2621 11.5141 18.186 11.5 18.1092 11.4992H18.0483C17.982 11.4973 17.9156 11.497 17.8492 11.4983H17.8117C17.7629 11.4996 17.7144 11.5052 17.6667 11.515C17.5 11.54 17.3083 11.595 17.1142 11.7225ZM16.0925 26.335V23.585L17.3425 22.3892V26.335H16.0925ZM18.3683 26.335V22.4725L19.6183 23.6692V26.335H18.3683Z" fill="#1E4D8E"/>
<path d="M12.8875 12.0292C13.3742 12.3375 13.7583 12.8833 14.0367 13.5758C14.1078 13.757 14.1792 13.9467 14.2508 14.145C14.4817 14.7783 14.7358 15.4767 15.1875 16.1083C15.7383 16.8775 16.56 17.4975 18 17.4975V18.7475C16.1008 18.7475 14.9225 17.885 14.1708 16.835C13.6075 16.0475 13.2717 15.12 13.0383 14.4758C12.9789 14.3081 12.925 14.1633 12.8767 14.0417C12.6517 13.4817 12.4017 13.2 12.22 13.0858C12.0717 12.9925 11.9683 13.0008 11.8592 13.0642C11.7117 13.1483 11.4967 13.3775 11.3158 13.8608C11.14 14.3342 11.0183 14.9992 11.0183 15.86V20.4183C11.0183 20.7067 11.0808 21.39 11.3933 21.9767C11.6817 22.52 12.1767 22.9842 13.1467 22.9842C13.635 22.9842 13.9475 22.8533 14.1967 22.6725C14.4658 22.4775 14.6792 22.215 14.9633 21.8667L14.985 21.8383C15.2617 21.4983 15.6042 21.0825 16.0842 20.7658C16.5825 20.4358 17.1967 20.2325 18 20.2325V21.4825C17.4267 21.4825 17.0558 21.6217 16.7733 21.8083C16.4725 22.0075 16.2375 22.28 15.955 22.6275L15.9008 22.6942C15.6467 23.0083 15.3367 23.39 14.93 23.685C14.4675 24.02 13.8983 24.2342 13.1467 24.2342C11.6392 24.2342 10.7575 23.4442 10.2883 22.5633C9.84334 21.7258 9.76834 20.8133 9.76834 20.4183V15.86C9.76834 14.89 9.90417 14.07 10.145 13.4242C10.3817 12.7883 10.7433 12.2642 11.2367 11.98C11.7667 11.675 12.3675 11.7008 12.8875 12.0292Z" fill="#1E4D8E"/>
<path d="M23.1125 12.0292C22.6258 12.3375 22.2417 12.8833 21.9633 13.5758C21.8922 13.757 21.8208 13.9467 21.7492 14.145C21.5183 14.7783 21.2642 15.4767 20.8125 16.1083C20.2617 16.8775 19.44 17.4975 18 17.4975V18.7475C19.8992 18.7475 21.0783 17.885 21.8292 16.835C22.3925 16.0475 22.7283 15.12 22.9617 14.4758C23.0211 14.3081 23.075 14.1633 23.1233 14.0417C23.3483 13.4817 23.5983 13.2 23.78 13.0858C23.9283 12.9925 24.0317 13.0008 24.1408 13.0642C24.2883 13.1483 24.5033 13.3775 24.6842 13.8608C24.86 14.3342 24.9817 14.9992 24.9817 15.86V20.4183C24.9817 20.7067 24.9192 21.39 24.6067 21.9767C24.3183 22.52 23.8233 22.9842 22.8533 22.9842C22.365 22.9842 22.0525 22.8533 21.8033 22.6725C21.5342 22.4775 21.3208 22.215 21.0367 21.8667L21.015 21.8383C20.7383 21.4983 20.3958 21.0825 19.9158 20.7658C19.4175 20.4358 18.8033 20.2325 18 20.2325V21.4825C18.5733 21.4825 18.9442 21.6217 19.2267 21.8083C19.5275 22.0075 19.7625 22.28 20.045 22.6275L20.0992 22.6942C20.3533 23.0083 20.6633 23.39 21.07 23.685C21.5325 24.02 22.1017 24.2342 22.8533 24.2342C24.3608 24.2342 25.2425 23.4442 25.7117 22.5633C26.1567 21.7258 26.2317 20.8133 26.2317 20.4183V15.86C26.2317 14.89 26.0958 14.07 25.855 13.4242C25.6183 12.7883 25.2567 12.2642 24.7633 11.98C24.2333 11.675 23.6325 11.7008 23.1125 12.0292ZM12.195 16.3333C12.3608 16.3333 12.5197 16.2675 12.6369 16.1503C12.7542 16.0331 12.82 15.8741 12.82 15.7083C12.82 15.5426 12.7542 15.3836 12.6369 15.2664C12.5197 15.1492 12.3608 15.0833 12.195 15.0833C12.0292 15.0833 11.8703 15.1492 11.7531 15.2664C11.6359 15.3836 11.57 15.5426 11.57 15.7083C11.57 15.8741 11.6359 16.0331 11.7531 16.1503C11.8703 16.2675 12.0292 16.3333 12.195 16.3333ZM13.8358 18.2083C13.8358 18.3741 13.77 18.5331 13.6528 18.6503C13.5356 18.7675 13.3766 18.8333 13.2108 18.8333C13.0451 18.8333 12.8861 18.7675 12.7689 18.6503C12.6517 18.5331 12.5858 18.3741 12.5858 18.2083C12.5858 18.0426 12.6517 17.8836 12.7689 17.7664C12.8861 17.6492 13.0451 17.5833 13.2108 17.5833C13.3766 17.5833 13.5356 17.6492 13.6528 17.7664C13.77 17.8836 13.8358 18.0426 13.8358 18.2083ZM15.2917 20.3792C15.4574 20.3792 15.6164 20.3133 15.7336 20.1961C15.8508 20.0789 15.9167 19.9199 15.9167 19.7542C15.9167 19.5884 15.8508 19.4295 15.7336 19.3122C15.6164 19.195 15.4574 19.1292 15.2917 19.1292C15.1259 19.1292 14.9669 19.195 14.8497 19.3122C14.7325 19.4295 14.6667 19.5884 14.6667 19.7542C14.6667 19.9199 14.7325 20.0789 14.8497 20.1961C14.9669 20.3133 15.1259 20.3792 15.2917 20.3792Z" fill="#1E4D8E"/>
<path d="M21.3367 19.7542C21.3367 19.9199 21.2708 20.0789 21.1536 20.1961C21.0364 20.3133 20.8774 20.3792 20.7117 20.3792C20.5459 20.3792 20.3869 20.3133 20.2697 20.1961C20.1525 20.0789 20.0867 19.9199 20.0867 19.7542C20.0867 19.5884 20.1525 19.4294 20.2697 19.3122C20.3869 19.195 20.5459 19.1292 20.7117 19.1292C20.8774 19.1292 21.0364 19.195 21.1536 19.3122C21.2708 19.4294 21.3367 19.5884 21.3367 19.7542ZM12.195 21.3333C12.3608 21.3333 12.5197 21.2675 12.6369 21.1503C12.7542 21.0331 12.82 20.8741 12.82 20.7083C12.82 20.5426 12.7542 20.3836 12.6369 20.2664C12.5197 20.1492 12.3608 20.0833 12.195 20.0833C12.0292 20.0833 11.8703 20.1492 11.7531 20.2664C11.6359 20.3836 11.57 20.5426 11.57 20.7083C11.57 20.8741 11.6359 21.0331 11.7531 21.1503C11.8703 21.2675 12.0292 21.3333 12.195 21.3333ZM23.15 15.7083C23.15 15.8741 23.2159 16.0331 23.3331 16.1503C23.4503 16.2675 23.6092 16.3333 23.775 16.3333C23.9408 16.3333 24.0997 16.2675 24.2169 16.1503C24.3342 16.0331 24.4 15.8741 24.4 15.7083C24.4 15.5426 24.3342 15.3836 24.2169 15.2664C24.0997 15.1492 23.9408 15.0833 23.775 15.0833C23.6092 15.0833 23.4503 15.1492 23.3331 15.2664C23.2159 15.3836 23.15 15.5426 23.15 15.7083ZM22.7583 18.8333C22.5926 18.8333 22.4336 18.7675 22.3164 18.6503C22.1992 18.5331 22.1333 18.3741 22.1333 18.2083C22.1333 18.0426 22.1992 17.8836 22.3164 17.7664C22.4336 17.6492 22.5926 17.5833 22.7583 17.5833C22.9241 17.5833 23.0831 17.6492 23.2003 17.7664C23.3175 17.8836 23.3833 18.0426 23.3833 18.2083C23.3833 18.3741 23.3175 18.5331 23.2003 18.6503C23.0831 18.7675 22.9241 18.8333 22.7583 18.8333ZM23.15 20.7083C23.15 20.8741 23.2159 21.0331 23.3331 21.1503C23.4503 21.2675 23.6092 21.3333 23.775 21.3333C23.9408 21.3333 24.0997 21.2675 24.2169 21.1503C24.3342 21.0331 24.4 20.8741 24.4 20.7083C24.4 20.5426 24.3342 20.3836 24.2169 20.2664C24.0997 20.1492 23.9408 20.0833 23.775 20.0833C23.6092 20.0833 23.4503 20.1492 23.3331 20.2664C23.2159 20.3836 23.15 20.5426 23.15 20.7083Z" fill="#1E4D8E"/>
</svg>
