<svg width="36" height="36" viewBox="0 0 36 36" fill="none" xmlns="http://www.w3.org/2000/svg">
<rect width="36" height="36" rx="12" fill="#F1C75B"/>
<path d="M10 17.319C10 20.421 10.444 22.638 12.222 25.297C13.573 27.094 15.378 27.544 17.302 26.285C17.728 26.017 18.272 26.017 18.699 26.285C20.622 27.545 22.427 27.094 23.778 25.297C25.556 22.637 26 20.421 26 17.32C26 14.659 24.01 12 21.556 12C20.289 12 19.146 12.693 18.336 13.44C18.244 13.5235 18.1242 13.5697 18 13.5697C17.8758 13.5697 17.756 13.5235 17.664 13.44C16.855 12.694 15.711 12 14.444 12C11.99 12 10 14.66 10 17.319Z" stroke="#1E4D8E" stroke-width="2" stroke-linecap="round" stroke-linejoin="round"/>
<path d="M13 18C13 16.53 13.454 15.66 14.5 15M18 13C18 11.8 18.867 9 21 9" stroke="#1E4D8E" stroke-width="2" stroke-linecap="round" stroke-linejoin="round"/>
</svg>
