<svg width="36" height="36" viewBox="0 0 36 36" fill="none" xmlns="http://www.w3.org/2000/svg">
<rect width="36" height="36" rx="12" fill="#F1C75B"/>
<path d="M12.5585 8.5H13.0015C15.3345 8.845 15.967 10.169 18 10.169C20.033 10.169 20.6655 8.845 22.999 8.5H23.25C23.8738 8.5 24.4915 8.62286 25.0678 8.86157C25.6441 9.10028 26.1677 9.45016 26.6088 9.89124C27.0498 10.3323 27.3997 10.856 27.6384 11.4323C27.8772 12.0086 28 12.6262 28 13.25V13.563C28 15.0145 26.455 16.6715 26 18.2415C25.5175 19.9085 25.187 21.2715 25.09 22.697C24.8625 26.0375 23.7235 27.5 22.5 27.5C20.673 27.5 19.051 20.0125 18.0315 20.0125C17.0115 20.0125 14.989 27.5 13.5 27.5C12.5915 27.5 11.415 26.9625 10.973 22.697C10.797 21 10.5 19.9705 10 18.2415C9.56001 16.7215 8.07601 14.9055 8.00001 13.2755C7.97134 12.659 8.06801 12.0432 8.28416 11.4651C8.50031 10.8871 8.83146 10.3589 9.25758 9.91249C9.68369 9.46609 10.1959 9.11075 10.7633 8.86797C11.3307 8.62519 11.9414 8.50001 12.5585 8.5Z" stroke="#1E4D8E" stroke-width="2"/>
<path d="M13.741 12.2315L22.0005 14.8945M13.741 14.8945L22.0005 12.2315" stroke="#1E4D8E" stroke-width="2" stroke-linecap="round"/>
</svg>
