<svg width="36" height="36" viewBox="0 0 36 36" fill="none" xmlns="http://www.w3.org/2000/svg">
<rect width="36" height="36" rx="12" fill="#F1C75B"/>
<path d="M18 23V12.1667M20.5 18.8333C19.0191 18.4004 18.0009 17.0429 18 15.5C17.9991 17.0429 16.9809 18.4004 15.5 18.8333M22.665 13.4167C23.1905 12.5065 23.0907 11.3648 22.4151 10.5596C21.7396 9.75449 20.6325 9.45786 19.6449 9.81735C18.6573 10.1768 17.9999 11.1157 18 12.1667C18 11.1157 17.3427 10.1768 16.3551 9.81735C15.3674 9.45786 14.2604 9.75449 13.5848 10.5596C12.9093 11.3648 12.8094 12.5065 13.335 13.4167" stroke="#1E4D8E" stroke-width="1.66667" stroke-linecap="round" stroke-linejoin="round"/>
<path d="M22.9975 12.2708C23.99 12.526 24.81 13.2236 25.221 14.1624C25.6319 15.1012 25.5883 16.1768 25.1025 17.0792" stroke="#1E4D8E" stroke-width="1.66667" stroke-linecap="round" stroke-linejoin="round"/>
<path d="M23 23C24.5086 22.9999 25.8291 21.9866 26.2196 20.5294C26.6101 19.0722 25.9731 17.5344 24.6667 16.78" stroke="#1E4D8E" stroke-width="1.66667" stroke-linecap="round" stroke-linejoin="round"/>
<path d="M24.6392 22.5692C24.7983 23.8005 24.2599 25.0183 23.2419 25.7293C22.224 26.4402 20.8953 26.5264 19.794 25.953C18.6927 25.3796 18.0013 24.2416 18 23C17.9987 24.2416 17.3074 25.3796 16.2061 25.953C15.1048 26.5264 13.776 26.4402 12.7581 25.7293C11.7401 25.0183 11.2017 23.8005 11.3608 22.5692" stroke="#1E4D8E" stroke-width="1.66667" stroke-linecap="round" stroke-linejoin="round"/>
<path d="M13 23C11.4914 22.9999 10.1709 21.9866 9.78039 20.5294C9.38992 19.0722 10.0269 17.5344 11.3333 16.78" stroke="#1E4D8E" stroke-width="1.66667" stroke-linecap="round" stroke-linejoin="round"/>
<path d="M13.0025 12.2708C12.01 12.526 11.19 13.2236 10.779 14.1624C10.368 15.1012 10.4117 16.1768 10.8975 17.0792" stroke="#1E4D8E" stroke-width="1.66667" stroke-linecap="round" stroke-linejoin="round"/>
</svg>
